<?xml version="1.0" standalone="no"?>
<!DOCTYPE svg PUBLIC "-//W3C//DTD SVG 20010904//EN"
 "http://www.w3.org/TR/2001/REC-SVG-20010904/DTD/svg10.dtd">
<svg version="1.0" xmlns="http://www.w3.org/2000/svg"
 width="896.000000pt" height="896.000000pt" viewBox="0 0 896.000000 896.000000"
 preserveAspectRatio="xMidYMid meet">
<metadata>
Created by potrace 1.14, written by Peter Selinger 2001-2017
</metadata>
<g transform="translate(0.000000,896.000000) scale(0.100000,-0.100000)"
fill="#000000" stroke="none">
<path d="M1675 8949 c-96 -28 -183 -111 -215 -204 -20 -60 -20 -64 -18 -4285
l3 -4225 25 -50 c30 -62 91 -122 156 -155 l49 -25 725 0 725 0 45 22 c58 30
112 77 144 130 35 57 47 112 46 216 0 9 0 25 0 35 0 9 0 38 -1 64 0 26 2 52 6
58 3 5 2 10 -4 10 -6 0 -6 11 -1 29 4 16 6 32 3 35 -7 7 -10 86 -3 86 7 0 3
147 -4 166 -3 7 -1 14 4 14 5 0 5 13 0 30 -5 17 -5 30 -1 30 8 0 7 47 -1 56
-4 3 -2 18 2 34 4 16 6 31 3 34 -8 8 -9 116 -1 116 4 0 3 14 -2 30 -5 17 -6
30 -2 30 8 0 7 109 -1 116 -3 3 -1 19 3 35 5 16 5 29 0 29 -5 0 -5 13 0 30 5
17 5 30 0 30 -5 0 -5 13 0 29 4 16 6 32 3 35 -7 6 -10 116 -3 116 7 0 3 147
-4 166 -3 7 -1 14 4 14 5 0 5 13 0 30 -5 17 -5 30 -1 30 8 0 7 47 -1 56 -4 3
-2 18 2 34 4 16 6 31 3 34 -8 8 -9 116 -1 116 4 0 3 14 -2 30 -5 17 -6 30 -2
30 8 0 7 109 -1 116 -3 3 -1 19 3 35 5 16 5 29 0 29 -5 0 -5 13 0 29 4 15 4
34 0 42 -5 7 -5 20 0 29 5 9 5 22 1 28 -4 7 -5 35 -1 62 4 27 3 55 -1 61 -4 7
-3 25 1 40 5 16 5 29 0 29 -5 0 -5 13 0 30 5 17 5 30 0 30 -5 0 -5 13 0 29 4
16 6 32 3 35 -7 6 -10 116 -3 116 7 0 3 147 -4 166 -3 7 -1 14 4 14 5 0 5 13
0 30 -5 17 -5 30 -1 30 8 0 7 47 -1 56 -4 3 -2 18 2 34 4 16 6 31 3 34 -8 8
-9 116 -1 116 4 0 3 14 -2 30 -5 17 -6 30 -2 30 4 0 6 20 4 44 l-4 44 1655 0
c910 0 1669 3 1688 8 19 4 36 8 39 9 3 0 22 9 42 19 74 36 151 135 166 211 3
17 6 284 6 595 l0 565 -26 55 c-36 73 -101 135 -174 165 l-59 24 -1664 1
c-916 0 -1666 2 -1668 4 -7 7 -8 116 -1 116 4 0 3 14 -2 30 -5 17 -6 30 -2 30
8 0 7 109 -1 116 -3 3 -1 19 3 35 5 16 5 29 0 29 -5 0 -5 13 0 29 4 15 4 34 0
42 -5 7 -5 20 0 29 5 9 5 22 1 28 -4 7 -5 35 -1 62 4 27 3 55 -1 62 -4 6 -4
19 1 28 5 9 5 22 0 29 -4 8 -4 27 0 42 5 16 5 29 0 29 -5 0 -5 13 0 29 4 15 5
33 1 40 -4 6 -5 34 -1 61 4 27 3 55 -1 62 -4 6 -4 19 1 28 5 9 5 22 0 29 -4 8
-4 27 0 42 5 16 5 29 0 29 -5 0 -5 13 0 29 4 15 5 33 1 40 -4 6 -5 34 -1 61 4
27 3 55 -1 62 -4 6 -4 19 1 28 5 9 5 22 0 29 -4 8 -4 27 0 42 5 16 5 29 0 29
-5 0 -5 13 0 29 4 15 5 33 1 40 -4 6 -5 34 -1 61 4 27 3 55 -1 62 -4 6 -4 19
1 28 5 9 5 22 0 29 -4 8 -4 27 0 42 5 16 5 29 0 29 -5 0 -5 13 0 29 4 15 5 33
1 40 -4 6 -4 36 -1 67 3 30 3 57 -1 60 -4 2 -3 20 1 39 4 19 4 35 0 35 -12 0
1 50 14 50 6 1 880 2 1941 4 1062 1 1937 5 1945 7 117 37 210 142 227 260 8
52 9 1176 1 1211 -2 10 -7 21 -11 24 -4 4 -7 13 -7 21 0 7 -14 35 -32 61 -33
51 -89 97 -148 122 -31 13 -375 15 -2810 17 -1585 1 -2788 -2 -2805 -8z"/>
</g>
</svg>
